<svg width="36" height="33" viewBox="0 0 36 33" fill="none" xmlns="http://www.w3.org/2000/svg">
<path fill-rule="evenodd" clip-rule="evenodd" d="M11.8426 1.8418C12.6493 1.8418 13.3032 2.44645 13.3032 3.19233V4.54286H23.5271V3.19233C23.5271 2.44645 24.181 1.8418 24.9877 1.8418C25.7943 1.8418 26.4482 2.44645 26.4482 3.19233V4.5762C30.1386 4.915 33.0207 7.79403 33.0207 11.2955V23.4503C33.0207 27.1797 29.7512 30.2029 25.7179 30.2029H11.1124C7.07914 30.2029 3.80957 27.1797 3.80957 23.4503V11.2955C3.80957 7.79403 6.69175 4.915 10.3821 4.5762V3.19233C10.3821 2.44645 11.036 1.8418 11.8426 1.8418ZM6.98001 9.94498H29.8503C29.2488 8.37135 27.6258 7.24392 25.7179 7.24392H11.1124C9.20455 7.24392 7.58152 8.37135 6.98001 9.94498ZM30.0996 12.646H6.73069V23.4503C6.73069 25.6879 8.69243 27.5019 11.1124 27.5019H25.7179C28.1379 27.5019 30.0996 25.6879 30.0996 23.4503V12.646ZM25.2902 15.0674C25.8605 15.5948 25.8605 16.4499 25.2902 16.9773L17.9874 23.73C17.417 24.2574 16.4922 24.2574 15.9218 23.73L12.2704 20.3537C11.7 19.8262 11.7 18.9711 12.2704 18.4437C12.8408 17.9163 13.7656 17.9163 14.336 18.4437L16.9546 20.8651L23.2246 15.0674C23.795 14.54 24.7198 14.54 25.2902 15.0674Z" fill="white"/>
</svg>
