<svg width="54" height="54" viewBox="0 0 54 54" fill="none" xmlns="http://www.w3.org/2000/svg">
<mask id="path-1-inside-1_75_41" fill="white">
<path d="M35.6067 15.7997C35.464 15.1734 35.0741 14.7031 34.538 14.5089C34.4997 14.495 34.4595 14.4934 34.4206 14.4825C34.8048 12.7348 35.8881 6.38114 32.3389 2.66284C30.2817 0.507994 27.0717 -0.344829 22.803 0.125512C22.7245 0.0938035 22.6393 0.0753069 22.5509 0.0726645C19.1978 -0.0356724 16.6319 0.888825 14.9497 2.81676C11.654 6.59274 12.8474 12.9643 13.191 14.4746C13.1404 14.4876 13.0885 14.4908 13.0388 14.5089C12.5023 14.7031 12.1128 15.1734 11.9698 15.7997C11.8423 16.3576 11.9133 17.002 12.1697 17.6137C12.639 18.7357 13.5888 19.4524 14.5009 19.4524C14.5984 19.4524 14.6956 19.4439 14.7916 19.4271C15.5652 21.7177 16.8557 23.6224 18.988 24.7914V27.1397H17.8803V33.7628H29.6963V27.1397H28.5881V24.8061C30.7242 23.6385 32.0158 21.728 32.7889 19.4281C32.8837 19.4444 32.9795 19.4524 33.0759 19.4524C33.987 19.4524 34.9371 18.7357 35.4072 17.614C35.6628 17.002 35.7338 16.3576 35.6067 15.7997ZM13.1858 17.2454C13.0086 16.8219 12.9543 16.3718 13.0367 16.0104C13.102 15.725 13.2469 15.5222 13.4343 15.4542C13.4851 15.436 13.5405 15.4271 13.5994 15.4271C13.7059 15.4271 13.8238 15.457 13.9455 15.5128C14.0704 16.5236 14.2479 17.5038 14.495 18.4346C14.0776 18.4268 13.4933 17.9802 13.1858 17.2454ZM29.2139 28.1544C28.1294 29.215 26.1083 29.93 23.7883 29.93C21.4682 29.93 19.4472 29.215 18.3627 28.1544H19.5333C19.8344 28.1544 20.0787 27.9271 20.0787 27.647V25.298C21.1414 25.7047 22.3765 25.9586 23.8159 26.0263C25.2321 25.9593 26.4486 25.7091 27.4978 25.3097V27.647C27.4978 27.9271 27.7421 28.1544 28.0431 28.1544H29.2139ZM32.5618 14.9756C32.526 15.2875 32.4898 15.5991 32.4453 15.8989C32.3318 16.6632 32.1867 17.3848 32.0098 18.0661C31.943 18.3232 31.8678 18.57 31.7911 18.8147C31.1225 20.9458 30.0696 22.6059 28.4435 23.6676C28.2033 23.8244 27.9434 23.9608 27.6778 24.0915C26.6091 24.6174 25.3419 24.9403 23.8159 25.0129C22.2934 24.941 21.0264 24.6242 19.9567 24.1074C19.6727 23.9702 19.3976 23.824 19.1423 23.6575C17.5127 22.5949 16.4573 20.9376 15.7876 18.811C15.7105 18.5662 15.6351 18.3192 15.5681 18.062C15.391 17.3822 15.2457 16.6624 15.1321 15.9001C15.0874 15.6001 15.051 15.2884 15.015 14.9763C14.9187 14.1414 14.8501 13.2664 14.8083 12.3498C14.936 11.6057 15.1229 10.988 15.3456 10.4819C15.6811 10.4291 16.405 10.2834 17.2575 9.91811C17.3917 10.0909 17.6203 10.2005 17.8526 10.184C17.9733 10.1784 19.5802 10.0928 21.2788 9.47287C21.2702 9.54455 21.2749 9.6182 21.2933 9.6912C21.3661 9.97525 21.6359 10.1781 21.9498 10.1847C22.0957 10.189 24.9826 10.222 26.7642 8.32642C27.4516 9.85833 28.995 12.3676 32.1429 13.9428L32.6122 14.5444C32.5974 14.6909 32.5784 14.8315 32.5618 14.9756ZM34.3903 17.2454C34.0838 17.9788 33.5011 18.4243 33.0847 18.4341C33.3306 17.5033 33.5072 16.5232 33.6317 15.5124C33.7531 15.4568 33.8708 15.4271 33.977 15.4271C34.036 15.4271 34.0914 15.436 34.1418 15.4542C34.3988 15.5473 34.5018 15.8426 34.5401 16.0104C34.6225 16.3718 34.5678 16.8219 34.3903 17.2454ZM22.5509 18.5662V17.144C22.5509 16.8639 22.7952 16.6367 23.0962 16.6367C23.3973 16.6367 23.6416 16.8639 23.6416 17.144V18.4513H24.4802C24.7813 18.4513 25.0256 18.6785 25.0256 18.9586C25.0256 19.2387 24.7813 19.466 24.4802 19.466H23.518C22.9848 19.466 22.5509 19.0623 22.5509 18.5662ZM19.9449 15.3037C19.9449 15.8494 19.4694 16.2917 18.8829 16.2917C18.2964 16.2917 17.8209 15.8494 17.8209 15.3037C17.8209 14.7581 18.2964 14.3158 18.8829 14.3158C19.4694 14.3158 19.9449 14.7581 19.9449 15.3037ZM29.7557 15.3037C29.7557 15.8494 29.2802 16.2917 28.6937 16.2917C28.1071 16.2917 27.6316 15.8494 27.6316 15.3037C27.6316 14.7581 28.1071 14.3158 28.6937 14.3158C29.2802 14.3158 29.7557 14.7581 29.7557 15.3037ZM26.4578 21.6915C26.4578 22.5106 25.0788 22.8026 23.7882 22.8026C22.498 22.8026 21.119 22.5106 21.119 21.6915C21.119 21.4114 21.3633 21.1842 21.6643 21.1842C21.9076 21.1842 22.1135 21.3321 22.1838 21.5369C22.3663 21.6373 22.94 21.7879 23.7882 21.7879C24.6368 21.7879 25.2106 21.6373 25.3931 21.5366C25.4634 21.3321 25.6693 21.1842 25.9125 21.1842C26.2136 21.1842 26.4578 21.4114 26.4578 21.6915ZM53.8164 37.5156C53.6594 37.2584 53.4158 37.0677 53.1256 36.9579C53.1711 36.6788 53.1261 36.3851 52.965 36.1211C52.8081 35.864 52.5646 35.6734 52.2741 35.5635C52.3195 35.2844 52.2746 34.9907 52.1136 34.7266C51.9524 34.4624 51.704 34.2765 51.4227 34.1704C51.4684 33.8912 51.4237 33.5974 51.2629 33.3334C51.0776 33.0302 50.7772 32.8129 50.4158 32.7204C50.0579 32.6286 49.6787 32.6722 49.3527 32.8439L48.8 33.1361C48.6947 32.9761 48.5556 32.8315 48.3849 32.7116V32.1569H51.4752C51.7763 32.1569 52.0206 31.9297 52.0206 31.6492C52.0206 31.3691 51.7763 31.1419 51.4752 31.1419H48.3849V30.6346H51.4752C51.7763 30.6346 52.0206 30.4073 52.0206 30.1272C52.0206 29.8471 51.7763 29.6199 51.4752 29.6199H48.3849V29.1126H51.4752C51.7763 29.1126 52.0206 28.8853 52.0206 28.6052C52.0206 28.3251 51.7763 28.0979 51.4752 28.0979H48.3849V27.5906H51.4752C51.7763 27.5906 52.0206 27.3633 52.0206 27.0832C52.0206 26.8031 51.7763 26.5759 51.4752 26.5759H48.3849L48.3884 26.0686H51.4752C51.7763 26.0686 52.0206 25.8413 52.0206 25.5612C52.0206 25.2811 51.7763 25.0539 51.4752 25.0539H48.3884C47.7749 25.0539 47.2942 25.5738 47.2942 26.2377V27.0832V28.6052V28.6819C47.2475 28.1055 47.018 27.5266 46.6132 27.0281C45.6169 25.8004 43.9106 25.4294 42.8113 26.2023C42.2384 26.6049 41.948 27.2404 41.9355 27.9295C41.2198 27.7519 40.4832 27.8378 39.9099 28.2406C39.3574 28.6284 39.0336 29.2576 39.0216 29.9664C39.0109 30.6227 39.2594 31.2981 39.7224 31.8689C40.1854 32.439 40.816 32.8466 41.4977 33.0163C41.7256 33.0731 41.9535 33.1009 42.1765 33.1009C42.6736 33.1009 43.1437 32.9622 43.525 32.694C43.5612 32.6685 43.587 32.635 43.621 32.6078L45.3314 34.5162L44.7134 35.7546C44.6661 35.8306 44.6232 35.9082 44.585 35.9892L40.9892 37.8869L34.854 28.5128C34.7035 28.283 34.5203 28.0856 34.3233 27.9046C33.9985 27.5147 33.5296 27.237 32.9859 27.1475C32.4562 26.9843 31.8916 26.9322 31.3323 27.0193V33.8184C31.4656 33.8569 31.5889 33.9132 31.6962 33.9881C31.8973 34.1284 32.0445 34.326 32.1038 34.5588L32.2413 35.0947L34.7862 45.0165V40.7671L36.8302 43.8903C37.4792 44.8819 38.6161 45.4328 39.7835 45.4328C40.3615 45.4328 40.9473 45.2974 41.4849 45.0133L48.0327 41.5571C48.0597 41.5429 48.0806 41.523 48.107 41.5081C48.1585 41.5111 48.2096 41.5175 48.2613 41.5175C48.6874 41.5175 49.1191 41.4177 49.5153 41.2083L50.7463 40.5579L50.8215 40.6418C51.0701 40.919 51.5085 40.9659 51.8182 40.7483L52.0435 40.5901L52.2809 40.4233L52.5059 40.2653C52.7319 40.1065 52.8178 39.836 52.7561 39.5748L53.2909 39.2919C53.6162 39.1202 53.8498 38.8408 53.9492 38.5045C54.0486 38.1689 54.001 37.8175 53.8164 37.5156ZM50.6433 35.1724L50.7431 35.1197C50.79 35.0952 50.8425 35.082 50.8951 35.082C50.9228 35.082 50.9505 35.086 50.9781 35.0926C51.0584 35.113 51.1251 35.1613 51.1656 35.228C51.2501 35.3661 51.1976 35.5431 51.0492 35.6217L50.9497 35.6742L50.231 36.0541L49.6219 36.3761C49.5501 36.4131 49.4671 36.4223 49.3868 36.4032C49.3073 36.3827 49.2405 36.3345 49.2001 36.2678C49.1156 36.129 49.1674 35.9527 49.3158 35.874L49.878 35.5769L50.6433 35.1724ZM48.8925 34.3825L48.9061 34.3554C48.9162 34.3351 48.9196 34.3137 48.9284 34.2933C48.9386 34.2695 48.9458 34.2453 48.9543 34.2213L49.635 33.8615L49.8917 33.7258C49.9393 33.7014 49.9911 33.6882 50.0444 33.6882C50.0721 33.6882 50.0998 33.6915 50.1267 33.6987C50.207 33.7192 50.2737 33.7674 50.3142 33.8341C50.3668 33.9201 50.3611 34.019 50.3174 34.102C50.2909 34.1523 50.2538 34.1982 50.1978 34.2279L49.806 34.4349L49.2504 34.7285L48.7705 34.9823C48.7111 35.0134 48.6442 35.0202 48.577 35.0121L48.8925 34.3825ZM42.6487 31.6146C42.3853 31.7982 42.0501 31.7536 41.8733 31.7094C41.5083 31.6185 41.1476 31.3794 40.8827 31.0534C40.6186 30.7274 40.4702 30.339 40.4758 29.9875C40.4787 29.8178 40.5227 29.505 40.7861 29.32C40.9182 29.2275 41.0808 29.1836 41.2569 29.1836C41.6844 29.1836 42.1943 29.4409 42.5514 29.8812C43.0563 30.5031 43.1003 31.2968 42.6487 31.6146ZM43.7842 29.0151C43.28 28.3935 43.2353 27.5995 43.6876 27.2817C43.8197 27.1893 43.9816 27.1453 44.1584 27.1453C44.5859 27.1453 45.095 27.403 45.4529 27.8432C45.7178 28.1692 45.8662 28.5577 45.8605 28.9088C45.8576 29.0789 45.8136 29.3913 45.5502 29.5763C45.2867 29.7599 44.9516 29.7154 44.7748 29.6711C44.4098 29.5803 44.049 29.3411 43.7842 29.0151ZM45.1884 33.0911C44.9396 32.7846 45.005 32.3486 45.3344 32.1172C45.6639 31.8858 46.1326 31.9466 46.3813 32.2531C46.4683 32.3602 46.5036 32.4835 46.5159 32.608C46.3114 32.7313 46.1397 32.8978 46.0323 33.1115L45.9137 33.3491C45.6463 33.3926 45.3632 33.3065 45.1884 33.0911ZM49.4753 40.0622L48.9764 40.3258C48.2798 40.6957 47.3872 40.4665 46.9895 39.8171L45.6418 37.6107C45.4495 37.2958 45.4004 36.9302 45.5039 36.5809L45.51 36.5687L45.689 36.2099L47.0215 33.5389C47.0598 33.4626 47.1646 33.4128 47.2942 33.4014C47.3901 33.3929 47.4981 33.4031 47.6102 33.4517C47.7224 33.5004 47.8004 33.571 47.8551 33.6448C47.8674 33.6616 47.882 33.6771 47.8914 33.6941C47.9374 33.7782 47.9484 33.8636 47.9169 33.9273L46.8009 36.1558L46.5784 36.6C46.5571 36.6425 46.5523 36.687 46.5444 36.7311C46.5048 36.9504 46.615 37.1754 46.8426 37.2738C46.9171 37.3062 46.9952 37.3214 47.0719 37.3214C47.1497 37.3214 47.2241 37.3014 47.2942 37.2722V39.6824C47.2942 39.9624 47.5384 40.1897 47.8395 40.1897C48.1406 40.1897 48.3849 39.9624 48.3849 39.6824V37.9232L49.7006 39.3911L50.0364 39.7659L49.4753 40.0622ZM50.4733 37.7699C50.4008 37.8069 50.3163 37.8182 50.2382 37.797C50.1587 37.7765 50.0919 37.7283 50.0515 37.6616C49.967 37.5229 50.0188 37.3465 50.1672 37.2679L50.8586 36.9025L51.4946 36.5663L51.5945 36.5135C51.6414 36.4891 51.6939 36.4758 51.7465 36.4758C51.7742 36.4758 51.8019 36.4798 51.8296 36.4864C51.9091 36.5069 51.9758 36.5551 52.0163 36.6218C52.1008 36.7606 52.049 36.9369 51.9006 37.0155L51.8011 37.0681L51.2116 37.3797L50.4733 37.7699ZM52.8975 38.2357C52.8755 38.3096 52.8237 38.3717 52.752 38.4094C52.752 38.4094 52.752 38.4094 52.7513 38.4094L52.4955 38.5447L52.1922 38.7052L51.3254 39.1638C51.2606 39.1987 51.1884 39.2048 51.1199 39.1936C51.0315 39.1791 50.9498 39.1332 50.9022 39.0555C50.8177 38.9167 50.8702 38.7403 51.0186 38.6617L51.8392 38.228L52.0604 38.1111L52.4459 37.9073C52.4928 37.8829 52.5453 37.8697 52.5979 37.8697C52.6062 37.8697 52.6143 37.8722 52.6226 37.8729C52.6419 37.8744 52.6613 37.8756 52.6802 37.8803C52.7605 37.9007 52.8265 37.949 52.8684 38.017C52.9089 38.0837 52.9195 38.161 52.8975 38.2357ZM34.6798 52.9225L34.3761 46.351C34.3747 46.3338 34.3726 46.3167 34.3676 46.2995L31.3966 34.7154C31.3856 34.6719 31.3624 34.6328 31.3323 34.5973C31.2513 34.5017 31.1109 34.4392 30.9535 34.4392H16.623C16.4656 34.4392 16.3253 34.502 16.2442 34.5973C16.2142 34.6327 16.191 34.6716 16.1799 34.7147L13.5705 44.89L13.241 44.7172L13.1645 44.6771C13.0791 44.6335 12.9932 44.5978 12.9073 44.5617L15.3353 35.0938L15.4371 34.6968L15.4727 34.5582C15.5321 34.3254 15.6795 34.128 15.8806 33.9878C15.9878 33.9131 16.1111 33.8568 16.2442 33.8184V27.1118V27.0441C14.9719 26.6607 13.5203 26.9851 12.5829 27.98L0.857835 40.4097C0.207387 41.0993 -0.0951134 42.0142 0.0263129 42.9245C0.147739 43.8355 0.682086 44.654 1.49408 45.1745L8.2201 49.4868C8.43003 49.6215 8.65264 49.7228 8.87938 49.8089C9.15477 50.103 9.48265 50.3543 9.85226 50.5458L12.2222 51.774L12.5775 51.9582L12.7903 52.0684L12.9153 52.1332C12.9213 52.1364 12.928 52.1372 12.9342 52.1402L12.8973 52.9232L12.8631 53.6505C12.8584 53.7496 12.9113 53.823 12.9568 53.8672C13.0434 53.9518 13.1737 54 13.3136 54H34.2625C34.4024 54 34.533 53.9518 34.6197 53.8672C34.6651 53.823 34.7184 53.7496 34.7134 53.6505L34.6798 52.9225ZM8.61101 41.933L12.7903 37.5026V44.5117C12.6531 44.4593 12.5156 44.4183 12.3783 44.3838C12.2979 44.3216 12.2276 44.2518 12.1398 44.1955L8.61101 41.933ZM16.7952 47.9417C16.7459 48.0243 16.6294 48.0553 16.5428 48.0091C16.5424 48.0091 16.5424 48.0091 16.5424 48.0091L14.0635 46.7243C13.926 46.6531 13.7642 46.6575 13.6188 46.71C13.486 46.758 13.3667 46.8457 13.2966 46.9621C13.2256 47.0797 13.2078 47.2184 13.2472 47.3485C13.2866 47.478 13.38 47.5876 13.5064 47.6537L13.5085 47.6548L16.476 49.1935C16.5335 49.2233 16.5556 49.2715 16.5634 49.2973C16.5715 49.323 16.5801 49.3745 16.5474 49.4287C16.5158 49.4822 16.4643 49.502 16.4363 49.51C16.4082 49.5172 16.3521 49.5252 16.2953 49.4954L13.3955 47.9918L13.3257 47.9556C13.2656 47.9245 13.1999 47.9108 13.1336 47.9057C13.0147 47.8966 12.8967 47.9307 12.7903 47.989C12.7805 47.9944 12.7702 47.9987 12.7606 48.0046C12.6794 48.0546 12.6058 48.1151 12.5581 48.1941C12.4874 48.3117 12.4697 48.451 12.5091 48.5805C12.5428 48.6913 12.6219 48.7821 12.7215 48.8487C12.7383 48.8599 12.7501 48.8763 12.7683 48.8857L12.7903 48.8971L12.8161 48.9105L13.0798 49.0472L15.2472 50.1706C15.3051 50.2003 15.3271 50.2485 15.3349 50.2749C15.3431 50.3007 15.3516 50.3516 15.3189 50.4057C15.287 50.4592 15.2358 50.4797 15.2078 50.487C15.1805 50.4942 15.1251 50.5028 15.0668 50.4724L13.0616 49.4334L12.7903 49.2928L12.7031 49.2476L12.5524 49.1696L12.3477 49.0634L12.3106 49.0442C12.1377 48.9551 11.8735 48.9894 11.7049 49.0872C11.5412 49.1823 11.4439 49.3508 11.4486 49.5298C11.4512 49.6245 11.4849 49.7126 11.5381 49.7896C11.5859 49.8587 11.6488 49.9192 11.7283 49.9605L12.2926 50.253L12.6479 50.4372L12.7903 50.511L13.0057 50.6226L13.6271 50.9448C13.6843 50.9745 13.7059 51.0227 13.7141 51.0485C13.7219 51.0742 13.7304 51.1258 13.6985 51.1793C13.6495 51.2612 13.5323 51.2936 13.4461 51.2467L12.9875 51.009L12.7903 50.9068L12.6301 50.8237L12.2747 50.6395L10.9765 49.9666L10.3834 49.6593C9.87569 49.3963 9.47591 48.9755 9.25791 48.4742C8.96251 47.7964 8.99588 47.0552 9.34667 46.4917C9.77379 45.806 10.5957 45.2994 11.5103 45.2994C11.881 45.2994 12.2671 45.385 12.648 45.5729C12.659 45.5783 12.67 45.5818 12.6809 45.5874L12.7903 45.6448L12.9779 45.7431L13.3074 45.9159L13.503 46.0185L16.7228 47.7072C16.7807 47.7369 16.8027 47.7858 16.8105 47.8116C16.8187 47.8373 16.8272 47.8889 16.7952 47.9417ZM30.2784 45.426C30.2628 46.3173 29.3384 46.7063 28.8671 46.018L28.393 45.3267C28.2669 45.7369 28.075 46.1221 27.8267 46.4731C27.8287 46.5276 27.8345 46.5811 27.8345 46.6361C27.8345 48.9358 26.0231 50.8003 23.7883 50.8003C21.5534 50.8003 19.742 48.9358 19.742 46.6361C19.742 46.5811 19.7479 46.5276 19.7498 46.4731C19.5011 46.1221 19.3092 45.7369 19.1831 45.3267L18.7095 46.018C18.2381 46.7063 17.3138 46.3173 17.2978 45.426C17.2904 45.0098 17.2744 44.5777 17.2448 44.1542C17.1417 42.6668 19.3182 41.9695 20.299 41.7308C21.1716 41.1475 22.4097 40.885 23.7883 40.885C25.1665 40.885 26.4049 41.1475 27.2776 41.7308C28.2584 41.9695 30.4348 42.6668 30.3317 44.1542C30.3021 44.5777 30.2861 45.0098 30.2784 45.426ZM22.1302 48.5147C22.1302 47.8881 22.8725 47.3802 23.7883 47.3802C24.704 47.3802 25.4464 47.8881 25.4464 48.5147C25.4464 49.1412 24.704 49.6492 23.7883 49.6492C22.8725 49.6492 22.1302 49.1412 22.1302 48.5147Z"/>
</mask>
<path d="M35.6067 15.7997C35.464 15.1734 35.0741 14.7031 34.538 14.5089C34.4997 14.495 34.4595 14.4934 34.4206 14.4825C34.8048 12.7348 35.8881 6.38114 32.3389 2.66284C30.2817 0.507994 27.0717 -0.344829 22.803 0.125512C22.7245 0.0938035 22.6393 0.0753069 22.5509 0.0726645C19.1978 -0.0356724 16.6319 0.888825 14.9497 2.81676C11.654 6.59274 12.8474 12.9643 13.191 14.4746C13.1404 14.4876 13.0885 14.4908 13.0388 14.5089C12.5023 14.7031 12.1128 15.1734 11.9698 15.7997C11.8423 16.3576 11.9133 17.002 12.1697 17.6137C12.639 18.7357 13.5888 19.4524 14.5009 19.4524C14.5984 19.4524 14.6956 19.4439 14.7916 19.4271C15.5652 21.7177 16.8557 23.6224 18.988 24.7914V27.1397H17.8803V33.7628H29.6963V27.1397H28.5881V24.8061C30.7242 23.6385 32.0158 21.728 32.7889 19.4281C32.8837 19.4444 32.9795 19.4524 33.0759 19.4524C33.987 19.4524 34.9371 18.7357 35.4072 17.614C35.6628 17.002 35.7338 16.3576 35.6067 15.7997ZM13.1858 17.2454C13.0086 16.8219 12.9543 16.3718 13.0367 16.0104C13.102 15.725 13.2469 15.5222 13.4343 15.4542C13.4851 15.436 13.5405 15.4271 13.5994 15.4271C13.7059 15.4271 13.8238 15.457 13.9455 15.5128C14.0704 16.5236 14.2479 17.5038 14.495 18.4346C14.0776 18.4268 13.4933 17.9802 13.1858 17.2454ZM29.2139 28.1544C28.1294 29.215 26.1083 29.93 23.7883 29.93C21.4682 29.93 19.4472 29.215 18.3627 28.1544H19.5333C19.8344 28.1544 20.0787 27.9271 20.0787 27.647V25.298C21.1414 25.7047 22.3765 25.9586 23.8159 26.0263C25.2321 25.9593 26.4486 25.7091 27.4978 25.3097V27.647C27.4978 27.9271 27.7421 28.1544 28.0431 28.1544H29.2139ZM32.5618 14.9756C32.526 15.2875 32.4898 15.5991 32.4453 15.8989C32.3318 16.6632 32.1867 17.3848 32.0098 18.0661C31.943 18.3232 31.8678 18.57 31.7911 18.8147C31.1225 20.9458 30.0696 22.6059 28.4435 23.6676C28.2033 23.8244 27.9434 23.9608 27.6778 24.0915C26.6091 24.6174 25.3419 24.9403 23.8159 25.0129C22.2934 24.941 21.0264 24.6242 19.9567 24.1074C19.6727 23.9702 19.3976 23.824 19.1423 23.6575C17.5127 22.5949 16.4573 20.9376 15.7876 18.811C15.7105 18.5662 15.6351 18.3192 15.5681 18.062C15.391 17.3822 15.2457 16.6624 15.1321 15.9001C15.0874 15.6001 15.051 15.2884 15.015 14.9763C14.9187 14.1414 14.8501 13.2664 14.8083 12.3498C14.936 11.6057 15.1229 10.988 15.3456 10.4819C15.6811 10.4291 16.405 10.2834 17.2575 9.91811C17.3917 10.0909 17.6203 10.2005 17.8526 10.184C17.9733 10.1784 19.5802 10.0928 21.2788 9.47287C21.2702 9.54455 21.2749 9.6182 21.2933 9.6912C21.3661 9.97525 21.6359 10.1781 21.9498 10.1847C22.0957 10.189 24.9826 10.222 26.7642 8.32642C27.4516 9.85833 28.995 12.3676 32.1429 13.9428L32.6122 14.5444C32.5974 14.6909 32.5784 14.8315 32.5618 14.9756ZM34.3903 17.2454C34.0838 17.9788 33.5011 18.4243 33.0847 18.4341C33.3306 17.5033 33.5072 16.5232 33.6317 15.5124C33.7531 15.4568 33.8708 15.4271 33.977 15.4271C34.036 15.4271 34.0914 15.436 34.1418 15.4542C34.3988 15.5473 34.5018 15.8426 34.5401 16.0104C34.6225 16.3718 34.5678 16.8219 34.3903 17.2454ZM22.5509 18.5662V17.144C22.5509 16.8639 22.7952 16.6367 23.0962 16.6367C23.3973 16.6367 23.6416 16.8639 23.6416 17.144V18.4513H24.4802C24.7813 18.4513 25.0256 18.6785 25.0256 18.9586C25.0256 19.2387 24.7813 19.466 24.4802 19.466H23.518C22.9848 19.466 22.5509 19.0623 22.5509 18.5662ZM19.9449 15.3037C19.9449 15.8494 19.4694 16.2917 18.8829 16.2917C18.2964 16.2917 17.8209 15.8494 17.8209 15.3037C17.8209 14.7581 18.2964 14.3158 18.8829 14.3158C19.4694 14.3158 19.9449 14.7581 19.9449 15.3037ZM29.7557 15.3037C29.7557 15.8494 29.2802 16.2917 28.6937 16.2917C28.1071 16.2917 27.6316 15.8494 27.6316 15.3037C27.6316 14.7581 28.1071 14.3158 28.6937 14.3158C29.2802 14.3158 29.7557 14.7581 29.7557 15.3037ZM26.4578 21.6915C26.4578 22.5106 25.0788 22.8026 23.7882 22.8026C22.498 22.8026 21.119 22.5106 21.119 21.6915C21.119 21.4114 21.3633 21.1842 21.6643 21.1842C21.9076 21.1842 22.1135 21.3321 22.1838 21.5369C22.3663 21.6373 22.94 21.7879 23.7882 21.7879C24.6368 21.7879 25.2106 21.6373 25.3931 21.5366C25.4634 21.3321 25.6693 21.1842 25.9125 21.1842C26.2136 21.1842 26.4578 21.4114 26.4578 21.6915ZM53.8164 37.5156C53.6594 37.2584 53.4158 37.0677 53.1256 36.9579C53.1711 36.6788 53.1261 36.3851 52.965 36.1211C52.8081 35.864 52.5646 35.6734 52.2741 35.5635C52.3195 35.2844 52.2746 34.9907 52.1136 34.7266C51.9524 34.4624 51.704 34.2765 51.4227 34.1704C51.4684 33.8912 51.4237 33.5974 51.2629 33.3334C51.0776 33.0302 50.7772 32.8129 50.4158 32.7204C50.0579 32.6286 49.6787 32.6722 49.3527 32.8439L48.8 33.1361C48.6947 32.9761 48.5556 32.8315 48.3849 32.7116V32.1569H51.4752C51.7763 32.1569 52.0206 31.9297 52.0206 31.6492C52.0206 31.3691 51.7763 31.1419 51.4752 31.1419H48.3849V30.6346H51.4752C51.7763 30.6346 52.0206 30.4073 52.0206 30.1272C52.0206 29.8471 51.7763 29.6199 51.4752 29.6199H48.3849V29.1126H51.4752C51.7763 29.1126 52.0206 28.8853 52.0206 28.6052C52.0206 28.3251 51.7763 28.0979 51.4752 28.0979H48.3849V27.5906H51.4752C51.7763 27.5906 52.0206 27.3633 52.0206 27.0832C52.0206 26.8031 51.7763 26.5759 51.4752 26.5759H48.3849L48.3884 26.0686H51.4752C51.7763 26.0686 52.0206 25.8413 52.0206 25.5612C52.0206 25.2811 51.7763 25.0539 51.4752 25.0539H48.3884C47.7749 25.0539 47.2942 25.5738 47.2942 26.2377V27.0832V28.6052V28.6819C47.2475 28.1055 47.018 27.5266 46.6132 27.0281C45.6169 25.8004 43.9106 25.4294 42.8113 26.2023C42.2384 26.6049 41.948 27.2404 41.9355 27.9295C41.2198 27.7519 40.4832 27.8378 39.9099 28.2406C39.3574 28.6284 39.0336 29.2576 39.0216 29.9664C39.0109 30.6227 39.2594 31.2981 39.7224 31.8689C40.1854 32.439 40.816 32.8466 41.4977 33.0163C41.7256 33.0731 41.9535 33.1009 42.1765 33.1009C42.6736 33.1009 43.1437 32.9622 43.525 32.694C43.5612 32.6685 43.587 32.635 43.621 32.6078L45.3314 34.5162L44.7134 35.7546C44.6661 35.8306 44.6232 35.9082 44.585 35.9892L40.9892 37.8869L34.854 28.5128C34.7035 28.283 34.5203 28.0856 34.3233 27.9046C33.9985 27.5147 33.5296 27.237 32.9859 27.1475C32.4562 26.9843 31.8916 26.9322 31.3323 27.0193V33.8184C31.4656 33.8569 31.5889 33.9132 31.6962 33.9881C31.8973 34.1284 32.0445 34.326 32.1038 34.5588L32.2413 35.0947L34.7862 45.0165V40.7671L36.8302 43.8903C37.4792 44.8819 38.6161 45.4328 39.7835 45.4328C40.3615 45.4328 40.9473 45.2974 41.4849 45.0133L48.0327 41.5571C48.0597 41.5429 48.0806 41.523 48.107 41.5081C48.1585 41.5111 48.2096 41.5175 48.2613 41.5175C48.6874 41.5175 49.1191 41.4177 49.5153 41.2083L50.7463 40.5579L50.8215 40.6418C51.0701 40.919 51.5085 40.9659 51.8182 40.7483L52.0435 40.5901L52.2809 40.4233L52.5059 40.2653C52.7319 40.1065 52.8178 39.836 52.7561 39.5748L53.2909 39.2919C53.6162 39.1202 53.8498 38.8408 53.9492 38.5045C54.0486 38.1689 54.001 37.8175 53.8164 37.5156ZM50.6433 35.1724L50.7431 35.1197C50.79 35.0952 50.8425 35.082 50.8951 35.082C50.9228 35.082 50.9505 35.086 50.9781 35.0926C51.0584 35.113 51.1251 35.1613 51.1656 35.228C51.2501 35.3661 51.1976 35.5431 51.0492 35.6217L50.9497 35.6742L50.231 36.0541L49.6219 36.3761C49.5501 36.4131 49.4671 36.4223 49.3868 36.4032C49.3073 36.3827 49.2405 36.3345 49.2001 36.2678C49.1156 36.129 49.1674 35.9527 49.3158 35.874L49.878 35.5769L50.6433 35.1724ZM48.8925 34.3825L48.9061 34.3554C48.9162 34.3351 48.9196 34.3137 48.9284 34.2933C48.9386 34.2695 48.9458 34.2453 48.9543 34.2213L49.635 33.8615L49.8917 33.7258C49.9393 33.7014 49.9911 33.6882 50.0444 33.6882C50.0721 33.6882 50.0998 33.6915 50.1267 33.6987C50.207 33.7192 50.2737 33.7674 50.3142 33.8341C50.3668 33.9201 50.3611 34.019 50.3174 34.102C50.2909 34.1523 50.2538 34.1982 50.1978 34.2279L49.806 34.4349L49.2504 34.7285L48.7705 34.9823C48.7111 35.0134 48.6442 35.0202 48.577 35.0121L48.8925 34.3825ZM42.6487 31.6146C42.3853 31.7982 42.0501 31.7536 41.8733 31.7094C41.5083 31.6185 41.1476 31.3794 40.8827 31.0534C40.6186 30.7274 40.4702 30.339 40.4758 29.9875C40.4787 29.8178 40.5227 29.505 40.7861 29.32C40.9182 29.2275 41.0808 29.1836 41.2569 29.1836C41.6844 29.1836 42.1943 29.4409 42.5514 29.8812C43.0563 30.5031 43.1003 31.2968 42.6487 31.6146ZM43.7842 29.0151C43.28 28.3935 43.2353 27.5995 43.6876 27.2817C43.8197 27.1893 43.9816 27.1453 44.1584 27.1453C44.5859 27.1453 45.095 27.403 45.4529 27.8432C45.7178 28.1692 45.8662 28.5577 45.8605 28.9088C45.8576 29.0789 45.8136 29.3913 45.5502 29.5763C45.2867 29.7599 44.9516 29.7154 44.7748 29.6711C44.4098 29.5803 44.049 29.3411 43.7842 29.0151ZM45.1884 33.0911C44.9396 32.7846 45.005 32.3486 45.3344 32.1172C45.6639 31.8858 46.1326 31.9466 46.3813 32.2531C46.4683 32.3602 46.5036 32.4835 46.5159 32.608C46.3114 32.7313 46.1397 32.8978 46.0323 33.1115L45.9137 33.3491C45.6463 33.3926 45.3632 33.3065 45.1884 33.0911ZM49.4753 40.0622L48.9764 40.3258C48.2798 40.6957 47.3872 40.4665 46.9895 39.8171L45.6418 37.6107C45.4495 37.2958 45.4004 36.9302 45.5039 36.5809L45.51 36.5687L45.689 36.2099L47.0215 33.5389C47.0598 33.4626 47.1646 33.4128 47.2942 33.4014C47.3901 33.3929 47.4981 33.4031 47.6102 33.4517C47.7224 33.5004 47.8004 33.571 47.8551 33.6448C47.8674 33.6616 47.882 33.6771 47.8914 33.6941C47.9374 33.7782 47.9484 33.8636 47.9169 33.9273L46.8009 36.1558L46.5784 36.6C46.5571 36.6425 46.5523 36.687 46.5444 36.7311C46.5048 36.9504 46.615 37.1754 46.8426 37.2738C46.9171 37.3062 46.9952 37.3214 47.0719 37.3214C47.1497 37.3214 47.2241 37.3014 47.2942 37.2722V39.6824C47.2942 39.9624 47.5384 40.1897 47.8395 40.1897C48.1406 40.1897 48.3849 39.9624 48.3849 39.6824V37.9232L49.7006 39.3911L50.0364 39.7659L49.4753 40.0622ZM50.4733 37.7699C50.4008 37.8069 50.3163 37.8182 50.2382 37.797C50.1587 37.7765 50.0919 37.7283 50.0515 37.6616C49.967 37.5229 50.0188 37.3465 50.1672 37.2679L50.8586 36.9025L51.4946 36.5663L51.5945 36.5135C51.6414 36.4891 51.6939 36.4758 51.7465 36.4758C51.7742 36.4758 51.8019 36.4798 51.8296 36.4864C51.9091 36.5069 51.9758 36.5551 52.0163 36.6218C52.1008 36.7606 52.049 36.9369 51.9006 37.0155L51.8011 37.0681L51.2116 37.3797L50.4733 37.7699ZM52.8975 38.2357C52.8755 38.3096 52.8237 38.3717 52.752 38.4094C52.752 38.4094 52.752 38.4094 52.7513 38.4094L52.4955 38.5447L52.1922 38.7052L51.3254 39.1638C51.2606 39.1987 51.1884 39.2048 51.1199 39.1936C51.0315 39.1791 50.9498 39.1332 50.9022 39.0555C50.8177 38.9167 50.8702 38.7403 51.0186 38.6617L51.8392 38.228L52.0604 38.1111L52.4459 37.9073C52.4928 37.8829 52.5453 37.8697 52.5979 37.8697C52.6062 37.8697 52.6143 37.8722 52.6226 37.8729C52.6419 37.8744 52.6613 37.8756 52.6802 37.8803C52.7605 37.9007 52.8265 37.949 52.8684 38.017C52.9089 38.0837 52.9195 38.161 52.8975 38.2357ZM34.6798 52.9225L34.3761 46.351C34.3747 46.3338 34.3726 46.3167 34.3676 46.2995L31.3966 34.7154C31.3856 34.6719 31.3624 34.6328 31.3323 34.5973C31.2513 34.5017 31.1109 34.4392 30.9535 34.4392H16.623C16.4656 34.4392 16.3253 34.502 16.2442 34.5973C16.2142 34.6327 16.191 34.6716 16.1799 34.7147L13.5705 44.89L13.241 44.7172L13.1645 44.6771C13.0791 44.6335 12.9932 44.5978 12.9073 44.5617L15.3353 35.0938L15.4371 34.6968L15.4727 34.5582C15.5321 34.3254 15.6795 34.128 15.8806 33.9878C15.9878 33.9131 16.1111 33.8568 16.2442 33.8184V27.1118V27.0441C14.9719 26.6607 13.5203 26.9851 12.5829 27.98L0.857835 40.4097C0.207387 41.0993 -0.0951134 42.0142 0.0263129 42.9245C0.147739 43.8355 0.682086 44.654 1.49408 45.1745L8.2201 49.4868C8.43003 49.6215 8.65264 49.7228 8.87938 49.8089C9.15477 50.103 9.48265 50.3543 9.85226 50.5458L12.2222 51.774L12.5775 51.9582L12.7903 52.0684L12.9153 52.1332C12.9213 52.1364 12.928 52.1372 12.9342 52.1402L12.8973 52.9232L12.8631 53.6505C12.8584 53.7496 12.9113 53.823 12.9568 53.8672C13.0434 53.9518 13.1737 54 13.3136 54H34.2625C34.4024 54 34.533 53.9518 34.6197 53.8672C34.6651 53.823 34.7184 53.7496 34.7134 53.6505L34.6798 52.9225ZM8.61101 41.933L12.7903 37.5026V44.5117C12.6531 44.4593 12.5156 44.4183 12.3783 44.3838C12.2979 44.3216 12.2276 44.2518 12.1398 44.1955L8.61101 41.933ZM16.7952 47.9417C16.7459 48.0243 16.6294 48.0553 16.5428 48.0091C16.5424 48.0091 16.5424 48.0091 16.5424 48.0091L14.0635 46.7243C13.926 46.6531 13.7642 46.6575 13.6188 46.71C13.486 46.758 13.3667 46.8457 13.2966 46.9621C13.2256 47.0797 13.2078 47.2184 13.2472 47.3485C13.2866 47.478 13.38 47.5876 13.5064 47.6537L13.5085 47.6548L16.476 49.1935C16.5335 49.2233 16.5556 49.2715 16.5634 49.2973C16.5715 49.323 16.5801 49.3745 16.5474 49.4287C16.5158 49.4822 16.4643 49.502 16.4363 49.51C16.4082 49.5172 16.3521 49.5252 16.2953 49.4954L13.3955 47.9918L13.3257 47.9556C13.2656 47.9245 13.1999 47.9108 13.1336 47.9057C13.0147 47.8966 12.8967 47.9307 12.7903 47.989C12.7805 47.9944 12.7702 47.9987 12.7606 48.0046C12.6794 48.0546 12.6058 48.1151 12.5581 48.1941C12.4874 48.3117 12.4697 48.451 12.5091 48.5805C12.5428 48.6913 12.6219 48.7821 12.7215 48.8487C12.7383 48.8599 12.7501 48.8763 12.7683 48.8857L12.7903 48.8971L12.8161 48.9105L13.0798 49.0472L15.2472 50.1706C15.3051 50.2003 15.3271 50.2485 15.3349 50.2749C15.3431 50.3007 15.3516 50.3516 15.3189 50.4057C15.287 50.4592 15.2358 50.4797 15.2078 50.487C15.1805 50.4942 15.1251 50.5028 15.0668 50.4724L13.0616 49.4334L12.7903 49.2928L12.7031 49.2476L12.5524 49.1696L12.3477 49.0634L12.3106 49.0442C12.1377 48.9551 11.8735 48.9894 11.7049 49.0872C11.5412 49.1823 11.4439 49.3508 11.4486 49.5298C11.4512 49.6245 11.4849 49.7126 11.5381 49.7896C11.5859 49.8587 11.6488 49.9192 11.7283 49.9605L12.2926 50.253L12.6479 50.4372L12.7903 50.511L13.0057 50.6226L13.6271 50.9448C13.6843 50.9745 13.7059 51.0227 13.7141 51.0485C13.7219 51.0742 13.7304 51.1258 13.6985 51.1793C13.6495 51.2612 13.5323 51.2936 13.4461 51.2467L12.9875 51.009L12.7903 50.9068L12.6301 50.8237L12.2747 50.6395L10.9765 49.9666L10.3834 49.6593C9.87569 49.3963 9.47591 48.9755 9.25791 48.4742C8.96251 47.7964 8.99588 47.0552 9.34667 46.4917C9.77379 45.806 10.5957 45.2994 11.5103 45.2994C11.881 45.2994 12.2671 45.385 12.648 45.5729C12.659 45.5783 12.67 45.5818 12.6809 45.5874L12.7903 45.6448L12.9779 45.7431L13.3074 45.9159L13.503 46.0185L16.7228 47.7072C16.7807 47.7369 16.8027 47.7858 16.8105 47.8116C16.8187 47.8373 16.8272 47.8889 16.7952 47.9417ZM30.2784 45.426C30.2628 46.3173 29.3384 46.7063 28.8671 46.018L28.393 45.3267C28.2669 45.7369 28.075 46.1221 27.8267 46.4731C27.8287 46.5276 27.8345 46.5811 27.8345 46.6361C27.8345 48.9358 26.0231 50.8003 23.7883 50.8003C21.5534 50.8003 19.742 48.9358 19.742 46.6361C19.742 46.5811 19.7479 46.5276 19.7498 46.4731C19.5011 46.1221 19.3092 45.7369 19.1831 45.3267L18.7095 46.018C18.2381 46.7063 17.3138 46.3173 17.2978 45.426C17.2904 45.0098 17.2744 44.5777 17.2448 44.1542C17.1417 42.6668 19.3182 41.9695 20.299 41.7308C21.1716 41.1475 22.4097 40.885 23.7883 40.885C25.1665 40.885 26.4049 41.1475 27.2776 41.7308C28.2584 41.9695 30.4348 42.6668 30.3317 44.1542C30.3021 44.5777 30.2861 45.0098 30.2784 45.426ZM22.1302 48.5147C22.1302 47.8881 22.8725 47.3802 23.7883 47.3802C24.704 47.3802 25.4464 47.8881 25.4464 48.5147C25.4464 49.1412 24.704 49.6492 23.7883 49.6492C22.8725 49.6492 22.1302 49.1412 22.1302 48.5147Z" stroke="white" stroke-width="2" mask="url(#path-1-inside-1_75_41)"/>
</svg>
