<svg width="50" height="47" viewBox="0 0 50 47" fill="none" xmlns="http://www.w3.org/2000/svg">
<g id="cards">
<mask id="mask0_90_241" style="mask-type:alpha" maskUnits="userSpaceOnUse" x="0" y="0" width="50" height="47">
<rect id="Bounding box" width="50" height="47" fill="#D9D9D9"/>
</mask>
<g mask="url(#mask0_90_241)">
<path id="cards_2" d="M12.5 22.5208V11.75H23.9583V22.5208H12.5ZM12.5 35.25V24.4792H23.9583V35.25H12.5ZM26.0417 22.5208V11.75H37.5V22.5208H26.0417ZM26.0417 35.25V24.4792H37.5V35.25H26.0417ZM16.6667 18.6042H19.7917V15.6667H16.6667V18.6042ZM30.2083 18.6042H33.3333V15.6667H30.2083V18.6042ZM16.6667 31.3333H19.7917V28.3958H16.6667V31.3333ZM30.2083 31.3333H33.3333V28.3958H30.2083V31.3333ZM10.4167 41.125C9.27083 41.125 8.28993 40.7415 7.47396 39.9745C6.65799 39.2075 6.25 38.2854 6.25 37.2083V9.79167C6.25 8.71458 6.65799 7.79253 7.47396 7.02552C8.28993 6.25851 9.27083 5.875 10.4167 5.875H39.5833C40.7292 5.875 41.7101 6.25851 42.526 7.02552C43.342 7.79253 43.75 8.71458 43.75 9.79167V37.2083C43.75 38.2854 43.342 39.2075 42.526 39.9745C41.7101 40.7415 40.7292 41.125 39.5833 41.125H10.4167ZM10.4167 37.2083H39.5833V9.79167H10.4167V37.2083Z" fill="#5A8416" fill-opacity="0.65"/>
</g>
</g>
</svg>
