<svg width="49" height="47" viewBox="0 0 49 47" fill="none" xmlns="http://www.w3.org/2000/svg">
<path d="M16.196 31.1608L13.1037 16.5469H21.1855H43.9553L40.863 31.1608H16.196Z" stroke="white" stroke-width="2"/>
<path d="M32.5936 7.80078H40.6387V9.23408H32.5936V7.80078Z" stroke="white" stroke-width="2"/>
<mask id="path-3-inside-1_104_2" fill="white">
<path d="M43.8513 35.1129H13.2077C12.9535 35.1129 12.733 34.9222 12.6769 34.6536L7.9168 11.9854C7.43496 9.6896 5.58166 8.08689 3.41041 8.08689H0.544446C0.243912 8.08689 0 7.82242 0 7.49657C0 7.17071 0.243912 6.90625 0.544446 6.90625H3.41041C6.0929 6.90625 8.38284 8.88677 8.97847 11.7233L13.6416 33.9328H43.4163L47.773 13.1867H21.1855C20.885 13.1867 20.6411 12.9222 20.6411 12.5963C20.6411 12.2705 20.885 12.006 21.1855 12.006H48.4557C48.6218 12.006 48.778 12.0881 48.8809 12.228C48.9844 12.3685 49.0236 12.5521 48.986 12.7274L44.3816 34.6536C44.3256 34.9222 44.1056 35.1129 43.8513 35.1129Z"/>
</mask>
<path d="M43.8513 35.1129H13.2077C12.9535 35.1129 12.733 34.9222 12.6769 34.6536L7.9168 11.9854C7.43496 9.6896 5.58166 8.08689 3.41041 8.08689H0.544446C0.243912 8.08689 0 7.82242 0 7.49657C0 7.17071 0.243912 6.90625 0.544446 6.90625H3.41041C6.0929 6.90625 8.38284 8.88677 8.97847 11.7233L13.6416 33.9328H43.4163L47.773 13.1867H21.1855C20.885 13.1867 20.6411 12.9222 20.6411 12.5963C20.6411 12.2705 20.885 12.006 21.1855 12.006H48.4557C48.6218 12.006 48.778 12.0881 48.8809 12.228C48.9844 12.3685 49.0236 12.5521 48.986 12.7274L44.3816 34.6536C44.3256 34.9222 44.1056 35.1129 43.8513 35.1129Z" fill="white"/>
<path d="M12.6769 34.6536L14.6347 34.2448L14.6342 34.2426L12.6769 34.6536ZM7.9168 11.9854L5.95944 12.3962L5.95948 12.3964L7.9168 11.9854ZM8.97847 11.7233L10.9358 11.3123L10.9358 11.3122L8.97847 11.7233ZM13.6416 33.9328L11.6843 34.3438L12.018 35.9328H13.6416V33.9328ZM43.4163 33.9328V35.9328H45.04L45.3736 34.3438L43.4163 33.9328ZM47.773 13.1867L49.7303 13.5977L50.2366 11.1867H47.773V13.1867ZM48.8809 12.228L47.2698 13.413L47.2704 13.4138L48.8809 12.228ZM48.986 12.7274L47.0304 12.3084L47.0287 12.3164L48.986 12.7274ZM44.3816 34.6536L42.4243 34.2426L42.4239 34.2448L44.3816 34.6536ZM43.8513 33.1129H13.2077V37.1129H43.8513V33.1129ZM13.2077 33.1129C14.0039 33.1129 14.5192 33.6915 14.6347 34.2448L10.7191 35.0623C10.9468 36.1529 11.903 37.1129 13.2077 37.1129V33.1129ZM14.6342 34.2426L9.87411 11.5743L5.95948 12.3964L10.7196 35.0646L14.6342 34.2426ZM9.87415 11.5745C9.22037 8.45956 6.63294 6.08689 3.41041 6.08689V10.0869C4.53038 10.0869 5.64955 10.9196 5.95944 12.3962L9.87415 11.5745ZM3.41041 6.08689H0.544446V10.0869H3.41041V6.08689ZM0.544446 6.08689C1.49773 6.08689 2 6.87326 2 7.49657H-2C-2 8.77159 -1.00991 10.0869 0.544446 10.0869V6.08689ZM2 7.49657C2 8.11988 1.49773 8.90625 0.544446 8.90625V4.90625C-1.00991 4.90625 -2 6.22155 -2 7.49657H2ZM0.544446 8.90625H3.41041V4.90625H0.544446V8.90625ZM3.41041 8.90625C5.04146 8.90625 6.59749 10.1167 7.02115 12.1343L10.9358 11.3122C10.1682 7.65686 7.14433 4.90625 3.41041 4.90625V8.90625ZM7.02114 12.1342L11.6843 34.3438L15.599 33.5219L10.9358 11.3123L7.02114 12.1342ZM13.6416 35.9328H43.4163V31.9328H13.6416V35.9328ZM45.3736 34.3438L49.7303 13.5977L45.8157 12.7756L41.459 33.5218L45.3736 34.3438ZM47.773 11.1867H21.1855V15.1867H47.773V11.1867ZM21.1855 11.1867C22.1388 11.1867 22.6411 11.973 22.6411 12.5963H18.6411C18.6411 13.8714 19.6311 15.1867 21.1855 15.1867V11.1867ZM22.6411 12.5963C22.6411 13.2196 22.1388 14.006 21.1855 14.006V10.006C19.6311 10.006 18.6411 11.3213 18.6411 12.5963H22.6411ZM21.1855 14.006H48.4557V10.006H21.1855V14.006ZM48.4557 14.006C47.9461 14.006 47.5197 13.7527 47.2698 13.413L50.4921 11.043C50.0364 10.4234 49.2975 10.006 48.4557 10.006V14.006ZM47.2704 13.4138C47.0282 13.0849 46.9503 12.6823 47.0304 12.3084L50.9416 13.1464C51.0969 12.4218 50.9405 11.652 50.4915 11.0422L47.2704 13.4138ZM47.0287 12.3164L42.4243 34.2426L46.3389 35.0646L50.9433 13.1384L47.0287 12.3164ZM42.4239 34.2448C42.5389 33.694 43.0528 33.1129 43.8513 33.1129V37.1129C45.1584 37.1129 46.1123 36.1504 46.3394 35.0623L42.4239 34.2448Z" fill="white" mask="url(#path-3-inside-1_104_2)"/>
<mask id="path-5-inside-2_104_2" fill="white">
<path d="M10.5829 43.2555C8.21242 43.2555 6.28345 41.1646 6.28345 38.5944C6.28345 36.0241 8.21188 33.9326 10.5829 33.9326H43.817C44.1181 33.9326 44.3615 34.1965 44.3615 34.5229C44.3615 34.8494 44.1181 35.1133 43.817 35.1133H10.5829C8.81294 35.1133 7.37234 36.6752 7.37234 38.5944C7.37234 40.5135 8.81294 42.0749 10.5829 42.0749C10.8835 42.0749 11.1274 42.3388 11.1274 42.6652C11.1274 42.9917 10.8835 43.2555 10.5829 43.2555Z"/>
</mask>
<path d="M10.5829 43.2555C8.21242 43.2555 6.28345 41.1646 6.28345 38.5944C6.28345 36.0241 8.21188 33.9326 10.5829 33.9326H43.817C44.1181 33.9326 44.3615 34.1965 44.3615 34.5229C44.3615 34.8494 44.1181 35.1133 43.817 35.1133H10.5829C8.81294 35.1133 7.37234 36.6752 7.37234 38.5944C7.37234 40.5135 8.81294 42.0749 10.5829 42.0749C10.8835 42.0749 11.1274 42.3388 11.1274 42.6652C11.1274 42.9917 10.8835 43.2555 10.5829 43.2555Z" fill="white"/>
<path d="M10.5829 41.2555C9.46592 41.2555 8.28345 40.2151 8.28345 38.5944H4.28345C4.28345 42.1141 6.95892 45.2555 10.5829 45.2555V41.2555ZM8.28345 38.5944C8.28345 36.9731 9.46585 35.9326 10.5829 35.9326V31.9326C6.9579 31.9326 4.28345 35.0751 4.28345 38.5944H8.28345ZM10.5829 35.9326H43.817V31.9326H10.5829V35.9326ZM43.817 35.9326C42.8643 35.9326 42.3615 35.1457 42.3615 34.5229H46.3615C46.3615 33.2473 45.3719 31.9326 43.817 31.9326V35.9326ZM42.3615 34.5229C42.3615 33.9002 42.8643 33.1133 43.817 33.1133V37.1133C45.3719 37.1133 46.3615 35.7986 46.3615 34.5229H42.3615ZM43.817 33.1133H10.5829V37.1133H43.817V33.1133ZM10.5829 33.1133C7.55913 33.1133 5.37234 35.7261 5.37234 38.5944H9.37234C9.37234 37.6244 10.0668 37.1133 10.5829 37.1133V33.1133ZM5.37234 38.5944C5.37234 41.4631 7.55955 44.0749 10.5829 44.0749V40.0749C10.0663 40.0749 9.37234 39.5639 9.37234 38.5944H5.37234ZM10.5829 44.0749C9.6309 44.0749 9.12739 43.2893 9.12739 42.6652H13.1274C13.1274 41.3882 12.136 40.0749 10.5829 40.0749V44.0749ZM9.12739 42.6652C9.12739 42.0411 9.6309 41.2555 10.5829 41.2555V45.2555C12.136 45.2555 13.1274 43.9422 13.1274 42.6652H9.12739Z" fill="white" mask="url(#path-5-inside-2_104_2)"/>
<mask id="path-7-inside-3_104_2" fill="white">
<path d="M39.9754 47C37.7714 47 35.978 45.0555 35.978 42.6653C35.978 40.2751 37.7714 38.3306 39.9754 38.3306C42.1798 38.3306 43.9732 40.2751 43.9732 42.6653C43.9732 45.0555 42.1798 47 39.9754 47ZM39.9754 39.5112C38.372 39.5112 37.0669 40.9256 37.0669 42.6653C37.0669 44.4049 38.3714 45.8193 39.9754 45.8193C41.5793 45.8193 42.8843 44.4049 42.8843 42.6653C42.8843 40.9256 41.5793 39.5112 39.9754 39.5112Z"/>
</mask>
<path d="M39.9754 47C37.7714 47 35.978 45.0555 35.978 42.6653C35.978 40.2751 37.7714 38.3306 39.9754 38.3306C42.1798 38.3306 43.9732 40.2751 43.9732 42.6653C43.9732 45.0555 42.1798 47 39.9754 47ZM39.9754 39.5112C38.372 39.5112 37.0669 40.9256 37.0669 42.6653C37.0669 44.4049 38.3714 45.8193 39.9754 45.8193C41.5793 45.8193 42.8843 44.4049 42.8843 42.6653C42.8843 40.9256 41.5793 39.5112 39.9754 39.5112Z" fill="white"/>
<path d="M39.9754 45C39.0254 45 37.978 44.1065 37.978 42.6653H33.978C33.978 46.0045 36.5175 49 39.9754 49V45ZM37.978 42.6653C37.978 41.2241 39.0254 40.3306 39.9754 40.3306V36.3306C36.5174 36.3306 33.978 39.3261 33.978 42.6653H37.978ZM39.9754 40.3306C40.926 40.3306 41.9732 41.2242 41.9732 42.6653H45.9732C45.9732 39.3259 43.4336 36.3306 39.9754 36.3306V40.3306ZM41.9732 42.6653C41.9732 44.1063 40.926 45 39.9754 45V49C43.4336 49 45.9732 46.0046 45.9732 42.6653H41.9732ZM39.9754 37.5112C37.1181 37.5112 35.0669 39.9764 35.0669 42.6653H39.0669C39.0669 41.8748 39.6258 41.5112 39.9754 41.5112V37.5112ZM35.0669 42.6653C35.0669 45.3539 37.1174 47.8193 39.9754 47.8193V43.8193C39.6255 43.8193 39.0669 43.456 39.0669 42.6653H35.0669ZM39.9754 47.8193C42.8329 47.8193 44.8843 45.3544 44.8843 42.6653H40.8843C40.8843 43.4555 40.3257 43.8193 39.9754 43.8193V47.8193ZM44.8843 42.6653C44.8843 39.9762 42.8329 37.5112 39.9754 37.5112V41.5112C40.3257 41.5112 40.8843 41.875 40.8843 42.6653H44.8843Z" fill="white" mask="url(#path-7-inside-3_104_2)"/>
<mask id="path-9-inside-4_104_2" fill="white">
<path d="M18.4889 47C16.285 47 14.4916 45.0555 14.4916 42.6653C14.4916 40.2751 16.285 38.3306 18.4889 38.3306C20.6934 38.3306 22.4868 40.2751 22.4868 42.6653C22.4868 45.0555 20.6934 47 18.4889 47ZM18.4889 39.5112C16.885 39.5112 15.5805 40.9256 15.5805 42.6653C15.5805 44.4049 16.885 45.8193 18.4889 45.8193C20.0928 45.8193 21.3979 44.4049 21.3979 42.6653C21.3979 40.9256 20.0928 39.5112 18.4889 39.5112Z"/>
</mask>
<path d="M18.4889 47C16.285 47 14.4916 45.0555 14.4916 42.6653C14.4916 40.2751 16.285 38.3306 18.4889 38.3306C20.6934 38.3306 22.4868 40.2751 22.4868 42.6653C22.4868 45.0555 20.6934 47 18.4889 47ZM18.4889 39.5112C16.885 39.5112 15.5805 40.9256 15.5805 42.6653C15.5805 44.4049 16.885 45.8193 18.4889 45.8193C20.0928 45.8193 21.3979 44.4049 21.3979 42.6653C21.3979 40.9256 20.0928 39.5112 18.4889 39.5112Z" fill="white"/>
<path d="M18.4889 45C17.539 45 16.4916 44.1065 16.4916 42.6653H12.4916C12.4916 46.0045 15.031 49 18.4889 49V45ZM16.4916 42.6653C16.4916 41.2241 17.539 40.3306 18.4889 40.3306V36.3306C15.031 36.3306 12.4916 39.3261 12.4916 42.6653H16.4916ZM18.4889 40.3306C19.4395 40.3306 20.4868 41.2242 20.4868 42.6653H24.4868C24.4868 39.3259 21.9472 36.3306 18.4889 36.3306V40.3306ZM20.4868 42.6653C20.4868 44.1063 19.4395 45 18.4889 45V49C21.9472 49 24.4868 46.0046 24.4868 42.6653H20.4868ZM18.4889 37.5112C15.6309 37.5112 13.5805 39.9767 13.5805 42.6653H17.5805C17.5805 41.8745 18.139 41.5112 18.4889 41.5112V37.5112ZM13.5805 42.6653C13.5805 45.3539 15.6309 47.8193 18.4889 47.8193V43.8193C18.139 43.8193 17.5805 43.456 17.5805 42.6653H13.5805ZM18.4889 47.8193C21.3464 47.8193 23.3979 45.3544 23.3979 42.6653H19.3979C19.3979 43.4555 18.8393 43.8193 18.4889 43.8193V47.8193ZM23.3979 42.6653C23.3979 39.9762 21.3464 37.5112 18.4889 37.5112V41.5112C18.8393 41.5112 19.3979 41.875 19.3979 42.6653H23.3979Z" fill="white" mask="url(#path-9-inside-4_104_2)"/>
<mask id="path-11-inside-5_104_2" fill="white">
<path d="M31.6242 43.2553H21.9423C21.6417 43.2553 21.3978 42.9915 21.3978 42.665C21.3978 42.3386 21.6417 42.0747 21.9423 42.0747H31.6242C31.9252 42.0747 32.1686 42.3386 32.1686 42.665C32.1686 42.9915 31.9252 43.2553 31.6242 43.2553Z"/>
</mask>
<path d="M31.6242 43.2553H21.9423C21.6417 43.2553 21.3978 42.9915 21.3978 42.665C21.3978 42.3386 21.6417 42.0747 21.9423 42.0747H31.6242C31.9252 42.0747 32.1686 42.3386 32.1686 42.665C32.1686 42.9915 31.9252 43.2553 31.6242 43.2553Z" fill="white"/>
<path d="M31.6242 41.2553H21.9423V45.2553H31.6242V41.2553ZM21.9423 41.2553C22.8943 41.2553 23.3978 42.041 23.3978 42.665H19.3978C19.3978 43.942 20.3892 45.2553 21.9423 45.2553V41.2553ZM23.3978 42.665C23.3978 43.2891 22.8943 44.0747 21.9423 44.0747V40.0747C20.3892 40.0747 19.3978 41.3881 19.3978 42.665H23.3978ZM21.9423 44.0747H31.6242V40.0747H21.9423V44.0747ZM31.6242 44.0747C30.6714 44.0747 30.1686 43.2877 30.1686 42.665H34.1686C34.1686 41.3894 33.1791 40.0747 31.6242 40.0747V44.0747ZM30.1686 42.665C30.1686 42.0423 30.6714 41.2553 31.6242 41.2553V45.2553C33.1791 45.2553 34.1686 43.9406 34.1686 42.665H30.1686Z" fill="white" mask="url(#path-11-inside-5_104_2)"/>
<mask id="path-13-inside-6_104_2" fill="white">
<path d="M43.8165 13.1856H29.4159C29.1148 13.1856 28.8715 12.9211 28.8715 12.5953V4.43944C28.8715 4.11358 29.1148 3.84912 29.4159 3.84912H43.8165C44.1176 3.84912 44.361 4.11358 44.361 4.43944V12.5953C44.361 12.9217 44.1176 13.1856 43.8165 13.1856ZM29.9604 12.005H43.2721V5.02976H29.9604V12.005V12.005Z"/>
</mask>
<path d="M43.8165 13.1856H29.4159C29.1148 13.1856 28.8715 12.9211 28.8715 12.5953V4.43944C28.8715 4.11358 29.1148 3.84912 29.4159 3.84912H43.8165C44.1176 3.84912 44.361 4.11358 44.361 4.43944V12.5953C44.361 12.9217 44.1176 13.1856 43.8165 13.1856ZM29.9604 12.005H43.2721V5.02976H29.9604V12.005V12.005Z" fill="white"/>
<path d="M43.2721 12.005V14.005H45.2721V12.005H43.2721ZM43.2721 5.02976H45.2721V3.02976H43.2721V5.02976ZM29.9604 5.02976V3.02976H27.9604V5.02976H29.9604ZM29.9604 12.005H27.9604V14.005H29.9604V12.005ZM43.8165 11.1856H29.4159V15.1856H43.8165V11.1856ZM29.4159 11.1856C30.3699 11.1856 30.8715 11.9733 30.8715 12.5953H26.8715C26.8715 13.869 27.8598 15.1856 29.4159 15.1856V11.1856ZM30.8715 12.5953V4.43944H26.8715V12.5953H30.8715ZM30.8715 4.43944C30.8715 5.0614 30.3699 5.84912 29.4159 5.84912V1.84912C27.8598 1.84912 26.8715 3.16577 26.8715 4.43944H30.8715ZM29.4159 5.84912H43.8165V1.84912H29.4159V5.84912ZM43.8165 5.84912C42.8625 5.84912 42.361 5.0614 42.361 4.43944H46.361C46.361 3.16577 45.3727 1.84912 43.8165 1.84912V5.84912ZM42.361 4.43944V12.5953H46.361V4.43944H42.361ZM42.361 12.5953C42.361 11.9726 42.8638 11.1856 43.8165 11.1856V15.1856C45.3714 15.1856 46.361 13.8709 46.361 12.5953H42.361ZM29.9604 14.005H43.2721V10.005H29.9604V14.005ZM45.2721 12.005V5.02976H41.2721V12.005H45.2721ZM43.2721 3.02976H29.9604V7.02976H43.2721V3.02976ZM27.9604 5.02976V12.005H31.9604V5.02976H27.9604Z" fill="white" mask="url(#path-13-inside-6_104_2)"/>
<mask id="path-15-inside-7_104_2" fill="white">
<path d="M15.1416 13.186C14.8411 13.186 14.5972 12.9215 14.5972 12.5956V0.590319C14.5972 0.264463 14.8411 0 15.1416 0H34.0366C34.3377 0 34.5811 0.264463 34.5811 0.590319V4.43979C34.5811 4.76564 34.3377 5.03011 34.0366 5.03011C33.7355 5.03011 33.4922 4.76564 33.4922 4.43979V1.18064H15.6861V12.5956C15.6861 12.9221 15.4421 13.186 15.1416 13.186Z"/>
</mask>
<path d="M15.1416 13.186C14.8411 13.186 14.5972 12.9215 14.5972 12.5956V0.590319C14.5972 0.264463 14.8411 0 15.1416 0H34.0366C34.3377 0 34.5811 0.264463 34.5811 0.590319V4.43979C34.5811 4.76564 34.3377 5.03011 34.0366 5.03011C33.7355 5.03011 33.4922 4.76564 33.4922 4.43979V1.18064H15.6861V12.5956C15.6861 12.9221 15.4421 13.186 15.1416 13.186Z" fill="white"/>
<path d="M33.4922 1.18064H35.4922V-0.819362H33.4922V1.18064ZM15.6861 1.18064V-0.819362H13.6861V1.18064H15.6861ZM15.1416 11.186C16.0949 11.186 16.5972 11.9723 16.5972 12.5956H12.5972C12.5972 13.8707 13.5873 15.186 15.1416 15.186V11.186ZM16.5972 12.5956V0.590319H12.5972V12.5956H16.5972ZM16.5972 0.590319C16.5972 1.21363 16.0949 2 15.1416 2V-2C13.5873 -2 12.5972 -0.684703 12.5972 0.590319H16.5972ZM15.1416 2H34.0366V-2H15.1416V2ZM34.0366 2C33.0826 2 32.5811 1.21228 32.5811 0.590319H36.5811C36.5811 -0.683353 35.5928 -2 34.0366 -2V2ZM32.5811 0.590319V4.43979H36.5811V0.590319H32.5811ZM32.5811 4.43979C32.5811 3.81783 33.0826 3.03011 34.0366 3.03011V7.03011C35.5928 7.03011 36.5811 5.71346 36.5811 4.43979H32.5811ZM34.0366 3.03011C34.9906 3.03011 35.4922 3.81783 35.4922 4.43979H31.4922C31.4922 5.71346 32.4805 7.03011 34.0366 7.03011V3.03011ZM35.4922 4.43979V1.18064H31.4922V4.43979H35.4922ZM33.4922 -0.819362H15.6861V3.18064H33.4922V-0.819362ZM13.6861 1.18064V12.5956H17.6861V1.18064H13.6861ZM13.6861 12.5956C13.6861 11.9716 14.1896 11.186 15.1416 11.186V15.186C16.6947 15.186 17.6861 13.8726 17.6861 12.5956H13.6861Z" fill="white" mask="url(#path-15-inside-7_104_2)"/>
<mask id="path-17-inside-8_104_2" fill="white">
<path d="M28.3111 30.7058C28.1663 30.7058 28.028 30.6439 27.9262 30.5329L22.4578 24.6031C20.7929 22.7973 20.7929 19.8599 22.4578 18.0553C24.0617 16.3156 26.6359 16.2519 28.3111 17.8658C29.9853 16.2519 32.56 16.3156 34.165 18.0553C35.8299 19.8605 35.8299 22.7979 34.1645 24.6031L28.6961 30.5329C28.5942 30.6439 28.456 30.7058 28.3111 30.7058ZM25.4773 17.8812C24.6623 17.8812 23.8478 18.2171 23.2276 18.8894C21.9874 20.2342 21.9874 22.4225 23.2276 23.7678L28.3111 29.2808L33.3946 23.7684C34.6349 22.4237 34.6349 20.2348 33.3952 18.89C32.1538 17.5447 30.1361 17.5453 28.8953 18.89L28.6961 19.1061C28.4832 19.3363 28.1391 19.3363 27.9262 19.1061L27.7269 18.89C27.1068 18.2176 26.2918 17.8812 25.4773 17.8812Z"/>
</mask>
<path d="M28.3111 30.7058C28.1663 30.7058 28.028 30.6439 27.9262 30.5329L22.4578 24.6031C20.7929 22.7973 20.7929 19.8599 22.4578 18.0553C24.0617 16.3156 26.6359 16.2519 28.3111 17.8658C29.9853 16.2519 32.56 16.3156 34.165 18.0553C35.8299 19.8605 35.8299 22.7979 34.1645 24.6031L28.6961 30.5329C28.5942 30.6439 28.456 30.7058 28.3111 30.7058ZM25.4773 17.8812C24.6623 17.8812 23.8478 18.2171 23.2276 18.8894C21.9874 20.2342 21.9874 22.4225 23.2276 23.7678L28.3111 29.2808L33.3946 23.7684C34.6349 22.4237 34.6349 20.2348 33.3952 18.89C32.1538 17.5447 30.1361 17.5453 28.8953 18.89L28.6961 19.1061C28.4832 19.3363 28.1391 19.3363 27.9262 19.1061L27.7269 18.89C27.1068 18.2176 26.2918 17.8812 25.4773 17.8812Z" fill="white"/>
<path d="M27.9262 30.5329L29.4 29.1808L29.3965 29.177L27.9262 30.5329ZM22.4578 24.6031L20.9874 25.9588L20.9875 25.959L22.4578 24.6031ZM22.4578 18.0553L23.9278 19.4115L23.9282 19.411L22.4578 18.0553ZM28.3111 17.8658L26.9235 19.3062L28.3116 20.6434L29.6992 19.3057L28.3111 17.8658ZM34.165 18.0553L35.6352 16.6994L35.635 16.6991L34.165 18.0553ZM34.1645 24.6031L32.6945 23.247L32.6942 23.2473L34.1645 24.6031ZM28.6961 30.5329L27.2258 29.177L27.2223 29.1809L28.6961 30.5329ZM23.2276 23.7678L21.7572 25.1234L21.7573 25.1236L23.2276 23.7678ZM28.3111 29.2808L26.8408 30.6366L28.3111 32.2311L29.7814 30.6367L28.3111 29.2808ZM33.3946 23.7684L31.9245 22.4125L31.9244 22.4126L33.3946 23.7684ZM33.3952 18.89L34.8657 17.5344L34.8651 17.5338L33.3952 18.89ZM28.8953 18.89L27.4254 17.5338L27.4252 17.5341L28.8953 18.89ZM28.6961 19.1061L30.1645 20.4639L30.1662 20.462L28.6961 19.1061ZM27.9262 19.1061L26.456 20.462L26.4578 20.4639L27.9262 19.1061ZM27.7269 18.89L26.2568 20.246L26.2568 20.246L27.7269 18.89ZM28.3111 28.7058C28.7493 28.7058 29.1386 28.8959 29.4 29.1809L26.4524 31.8849C26.9175 32.3918 27.5834 32.7058 28.3111 32.7058V28.7058ZM29.3965 29.177L23.928 23.2473L20.9875 25.959L26.456 31.8887L29.3965 29.177ZM23.9282 23.2474C22.9692 22.2073 22.9698 20.4498 23.9278 19.4115L20.9878 16.6991C18.616 19.27 18.6166 23.3874 20.9874 25.9588L23.9282 23.2474ZM23.9282 19.411C24.7729 18.4948 26.0573 18.4716 26.9235 19.3062L29.6987 16.4255C27.2145 14.0321 23.3506 14.1365 20.9874 16.6996L23.9282 19.411ZM29.6992 19.3057C30.5637 18.4723 31.8487 18.4941 32.6951 19.4115L35.635 16.6991C33.2713 14.1371 29.4069 14.0315 26.9231 16.4259L29.6992 19.3057ZM32.6948 19.4112C33.6533 20.4505 33.6533 22.2077 32.6945 23.247L35.6344 25.9593C38.0066 23.3881 38.0066 19.2705 35.6352 16.6994L32.6948 19.4112ZM32.6942 23.2473L27.2258 29.177L30.1663 31.8887L35.6347 25.959L32.6942 23.2473ZM27.2223 29.1809C27.4837 28.8959 27.873 28.7058 28.3111 28.7058V32.7058C29.0389 32.7058 29.7048 32.3918 30.1698 31.8849L27.2223 29.1809ZM25.4773 15.8812C24.1023 15.8812 22.7552 16.4516 21.7575 17.5335L24.6978 20.2454C24.9403 19.9825 25.2222 19.8812 25.4773 19.8812V15.8812ZM21.7575 17.5335C19.8106 19.6444 19.811 23.0124 21.7572 25.1234L24.6981 22.4122C24.1637 21.8326 24.1642 20.824 24.6978 20.2454L21.7575 17.5335ZM21.7573 25.1236L26.8408 30.6366L29.7815 27.925L24.698 22.412L21.7573 25.1236ZM29.7814 30.6367L34.8649 25.1243L31.9244 22.4126L26.8409 27.925L29.7814 30.6367ZM34.8648 25.1244C36.8115 23.0137 36.8114 19.645 34.8657 17.5344L31.9247 20.2456C32.4583 20.8245 32.4583 21.8336 31.9245 22.4125L34.8648 25.1244ZM34.8651 17.5338C32.8315 15.3298 29.458 15.331 27.4254 17.5338L30.3652 20.2463C30.8143 19.7596 31.4762 19.7595 31.9253 20.2463L34.8651 17.5338ZM27.4252 17.5341L27.2259 17.7501L30.1662 20.462L30.3655 20.246L27.4252 17.5341ZM27.2276 17.7483C27.8065 17.1222 28.8158 17.1222 29.3947 17.7483L26.4578 20.4639C27.4624 21.5504 29.1599 21.5504 30.1645 20.4639L27.2276 17.7483ZM29.3964 17.7501L29.1971 17.5341L26.2568 20.246L26.456 20.462L29.3964 17.7501ZM29.1971 17.5341C28.1998 16.4528 26.8525 15.8812 25.4773 15.8812V19.8812C25.7311 19.8812 26.0138 19.9825 26.2568 20.246L29.1971 17.5341Z" fill="white" mask="url(#path-17-inside-8_104_2)"/>
</svg>
