<svg width="36" height="36" viewBox="0 0 36 36" fill="none" xmlns="http://www.w3.org/2000/svg">
<path d="M33.8497 1.82602C32.4642 0.572312 31.6867 -0.313878 30.3011 0.939827L27.6567 2.74102L33.1707 7.73016L35.3245 5.18987C36.7106 3.93617 35.7311 3.52841 34.3451 2.27433L33.8497 1.82602Z" fill="white"/>
<path d="M23.1837 3.02726L24.6156 4.32288L6.8003 20.4428L7.12208 20.734L5.21689 22.4585L6.5428 23.6575L1.61477 28.1165C1.14567 28.5409 0.887329 29.1051 0.887329 29.7051C0.887329 30.3052 1.14567 30.8693 1.61477 31.2938C2.09889 31.7318 2.73451 31.9505 3.37054 31.9505C4.00616 31.9505 4.64178 31.7314 5.12591 31.2938L10.0544 26.8348L11.3799 28.0341L13.2855 26.3107L13.6077 26.6018L31.4234 10.4819L32.8553 11.7775L35.2492 9.61147L25.5776 0.86084L23.1837 3.02726ZM3.83255 30.1231C3.57755 30.3546 3.16312 30.3542 2.90854 30.1235C2.78501 30.0117 2.71698 29.863 2.71698 29.7051C2.71698 29.5473 2.78501 29.3989 2.90854 29.2875L7.83658 24.8285L8.76058 25.6646L3.83255 30.1231ZM11.3799 25.6936L11.3477 25.6646L7.83658 22.4872L7.80402 22.4585L8.41585 21.9046L10.2038 23.5223L11.9917 25.14L11.3799 25.6936ZM13.7842 24.5381L9.46173 20.5312L9.38744 20.4428L25.9094 5.49313L30.1296 9.31164L13.7842 24.5381Z" fill="white"/>
<path d="M1.73946 31.9917L1.68616 31.9556L1.63286 31.9917C1.58338 32.0252 0.421387 32.8255 0.421387 33.9172C0.421387 34.5482 0.988744 35.0615 1.68616 35.0615C2.38358 35.0615 2.95093 34.5482 2.95093 33.9172C2.95093 32.8255 1.78894 32.0252 1.73946 31.9917ZM1.68616 32.1593C1.70584 32.2039 2.43408 32.7204 2.28103 33.0089C2.19998 33.1617 1.46076 32.3288 1.68616 32.1593Z" fill="white"/>
</svg>
